<!-- Generated by IcoMoon.io -->
<svg version="1.1" xmlns="http://www.w3.org/2000/svg" width="32" height="32" viewBox="0 0 32 32">
<title>add</title>
<path d="M16 0c-8.823 0-16 7.177-16 16s7.177 16 16 16 16-7.177 16-16-7.177-16-16-16zM23 17.333h-5.667v5.667c0 0.736-0.597 1.333-1.333 1.333s-1.333-0.597-1.333-1.333v-5.667h-5.667c-0.736 0-1.333-0.597-1.333-1.333s0.597-1.333 1.333-1.333h5.667v-5.667c0-0.736 0.597-1.333 1.333-1.333s1.333 0.597 1.333 1.333v5.667h5.667c0.736 0 1.333 0.597 1.333 1.333s-0.597 1.333-1.333 1.333z"></path>
</svg>
