<!-- Generated by IcoMoon.io -->
<svg version="1.1" xmlns="http://www.w3.org/2000/svg" width="32" height="32" viewBox="0 0 32 32">
<title>calendar</title>
<path d="M30.5 22.208v-17.802c0-1.051-0.855-1.906-1.906-1.906h-4.531v-0.625c0-1.034-0.841-1.875-1.875-1.875s-1.875 0.841-1.875 1.875v0.625h-10.125v-0.625c0-1.034-0.841-1.875-1.875-1.875s-1.875 0.841-1.875 1.875v0.625h-4.531c-1.051 0-1.906 0.855-1.906 1.906v23.188c0 1.051 0.855 1.906 1.906 1.906h8.519c0.345 0 0.625-0.28 0.625-0.625s-0.28-0.625-0.625-0.625h-8.519c-0.362 0-0.656-0.294-0.656-0.656v-23.188c0-0.362 0.294-0.656 0.656-0.656h4.531v0.625c0 1.034 0.841 1.875 1.875 1.875s1.875-0.841 1.875-1.875v-0.625h10.125v0.625c0 1.034 0.841 1.875 1.875 1.875s1.875-0.841 1.875-1.875v-0.625h4.531c0.362 0 0.656 0.294 0.656 0.656v3.094h-23.625c-0.345 0-0.625 0.28-0.625 0.625s0.28 0.625 0.625 0.625h23.625v12.402c-0.532-0.336-1.122-0.588-1.75-0.739v-9.288c0-0.345-0.28-0.625-0.625-0.625h-23.25c-0.345 0-0.625 0.28-0.625 0.625v14.75c0 0.345 0.28 0.625 0.625 0.625h16.637c0.039 0.613 0.172 1.202 0.386 1.75h-5.223c-0.345 0-0.625 0.28-0.625 0.625s0.28 0.625 0.625 0.625h5.894c1.064 1.511 2.822 2.5 4.806 2.5 3.239 0 5.875-2.636 5.875-5.875 0-1.503-0.568-2.876-1.5-3.917zM8.938 4.375c0 0.345-0.28 0.625-0.625 0.625s-0.625-0.28-0.625-0.625v-2.5c0-0.345 0.28-0.625 0.625-0.625s0.625 0.28 0.625 0.625v2.5zM22.813 4.375c0 0.345-0.28 0.625-0.625 0.625s-0.625-0.28-0.625-0.625v-2.5c0-0.345 0.28-0.625 0.625-0.625s0.625 0.28 0.625 0.625v2.5zM26.125 20.25c-0.291 0-0.576 0.022-0.856 0.063h-2.419v-3.625h3.4v3.564c-0.042-0.001-0.083-0.002-0.125-0.002zM20.315 25.25h-2.115v-3.688h3.4v0.82c-0.666 0.804-1.123 1.789-1.285 2.868zM4.25 16.688h3.4v3.625h-3.4v-3.625zM8.9 16.688h3.4v3.625h-3.4v-3.625zM18.2 16.688h3.4v3.625h-3.4v-3.625zM16.95 20.313h-3.4v-3.625h3.4v3.625zM18.2 15.438v-3.688h3.4v3.688h-3.4zM16.95 15.438h-3.4v-3.688h3.4v3.688zM12.3 15.438h-3.4v-3.688h3.4v3.688zM12.3 21.563v3.688h-3.4v-3.688h3.4zM13.55 21.563h3.4v3.688h-3.4v-3.688zM26.25 15.438h-3.4v-3.688h3.4v3.688zM7.65 11.75v3.688h-3.4v-3.688h3.4zM4.25 21.563h3.4v3.688h-3.4v-3.688zM26.125 30.75c-2.55 0-4.625-2.075-4.625-4.625s2.075-4.625 4.625-4.625 4.625 2.075 4.625 4.625-2.075 4.625-4.625 4.625z"></path>
<path d="M27.933 24.61l-1.933 1.933-0.86-0.86c-0.244-0.244-0.64-0.244-0.884 0s-0.244 0.64 0 0.884l1.302 1.302c0.117 0.117 0.276 0.183 0.442 0.183s0.325-0.066 0.442-0.183l2.375-2.375c0.244-0.244 0.244-0.64 0-0.884s-0.64-0.244-0.884 0z"></path>
<path d="M12.925 28.25c-0.164 0-0.326 0.067-0.442 0.183s-0.183 0.277-0.183 0.442 0.067 0.326 0.183 0.442c0.116 0.116 0.277 0.183 0.442 0.183s0.326-0.067 0.442-0.183c0.116-0.116 0.183-0.277 0.183-0.442s-0.067-0.326-0.183-0.442c-0.116-0.116-0.277-0.183-0.442-0.183z"></path>
<path d="M3.567 8.567c0.116-0.116 0.183-0.277 0.183-0.442s-0.067-0.326-0.183-0.442c-0.116-0.116-0.277-0.183-0.442-0.183s-0.326 0.067-0.442 0.183-0.183 0.277-0.183 0.442c0 0.164 0.067 0.326 0.183 0.442s0.277 0.183 0.442 0.183c0.164 0 0.326-0.067 0.442-0.183z"></path>
</svg>
