<!-- Generated by IcoMoon.io -->
<svg version="1.1" xmlns="http://www.w3.org/2000/svg" width="32" height="32" viewBox="0 0 32 32">
<title>menu-cards</title>
<path d="M11.050 0h-7.349c-2.040 0-3.7 1.66-3.7 3.7v7.349c0 2.040 1.66 3.7 3.7 3.7h7.349c2.040 0 3.7-1.66 3.7-3.7v-7.349c0-2.040-1.66-3.7-3.7-3.7zM12.25 11.050c0 0.662-0.539 1.2-1.2 1.2h-7.349c-0.662 0-1.2-0.539-1.2-1.2v-7.349c0-0.662 0.539-1.2 1.2-1.2h7.349c0.662 0 1.2 0.539 1.2 1.2v7.349z"></path>
<path d="M28.25 0h-7.25c-2.068 0-3.75 1.682-3.75 3.75v7.25c0 2.068 1.682 3.75 3.75 3.75h7.25c2.068 0 3.75-1.682 3.75-3.75v-7.25c0-2.068-1.682-3.75-3.75-3.75zM29.5 11c0 0.689-0.561 1.25-1.25 1.25h-7.25c-0.689 0-1.25-0.561-1.25-1.25v-7.25c0-0.689 0.561-1.25 1.25-1.25h7.25c0.689 0 1.25 0.561 1.25 1.25v7.25z"></path>
<path d="M11.050 17.25h-7.349c-2.040 0-3.7 1.66-3.7 3.7v7.349c0 2.040 1.66 3.701 3.7 3.701h7.349c2.040 0 3.7-1.66 3.7-3.7v-7.349c0-2.040-1.66-3.701-3.7-3.701zM12.25 28.299c0 0.662-0.539 1.201-1.2 1.201h-7.349c-0.662 0-1.2-0.539-1.2-1.2v-7.349c0-0.662 0.539-1.201 1.2-1.201h7.349c0.662 0 1.2 0.539 1.2 1.2v7.349z"></path>
<path d="M28.25 17.25h-7.25c-2.068 0-3.75 1.682-3.75 3.75v7.25c0 2.068 1.682 3.75 3.75 3.75h7.25c2.068 0 3.75-1.682 3.75-3.75v-7.25c0-2.068-1.682-3.75-3.75-3.75zM29.5 28.25c0 0.689-0.561 1.25-1.25 1.25h-7.25c-0.689 0-1.25-0.561-1.25-1.25v-7.25c0-0.689 0.561-1.25 1.25-1.25h7.25c0.689 0 1.25 0.561 1.25 1.25v7.25z"></path>
</svg>
