<!-- Generated by IcoMoon.io -->
<svg version="1.1" xmlns="http://www.w3.org/2000/svg" width="32" height="32" viewBox="0 0 32 32">
<title>message</title>
<path d="M27.2 1.6h-22.4c-2.65 0.003-4.797 2.15-4.8 4.8v13.867c0.003 2.65 2.15 4.797 4.8 4.8h1.483l-0.939 4.693c-0.040 0.202 0.039 0.409 0.204 0.532s0.385 0.141 0.567 0.045l10.017-5.27h11.068c2.65-0.003 4.797-2.15 4.8-4.8v-13.867c-0.003-2.65-2.15-4.797-4.8-4.8zM30.933 20.267c-0.002 2.061-1.672 3.731-3.733 3.733h-11.2c-0.087 0-0.172 0.021-0.248 0.061l-9.142 4.812 0.846-4.233c0.032-0.157-0.008-0.32-0.109-0.444s-0.253-0.196-0.413-0.196h-2.133c-2.061-0.002-3.731-1.672-3.733-3.733v-13.867c0.002-2.061 1.672-3.731 3.733-3.733h22.4c2.061 0.002 3.731 1.672 3.733 3.733z"></path>
</svg>
