<!-- Generated by IcoMoon.io -->
<svg version="1.1" xmlns="http://www.w3.org/2000/svg" width="32" height="32" viewBox="0 0 32 32">
<title>settings</title>
<path d="M17.004 32h-2.008c-1.624 0-2.946-1.322-2.946-2.946v-0.679c-0.691-0.221-1.361-0.499-2.006-0.833l-0.482 0.482c-1.166 1.168-3.034 1.133-4.167-0l-1.419-1.419c-1.134-1.133-1.167-3 0-4.167l0.481-0.481c-0.334-0.645-0.612-1.315-0.833-2.006h-0.679c-1.624 0-2.946-1.322-2.946-2.946v-2.008c0-1.624 1.322-2.946 2.946-2.946h0.679c0.221-0.691 0.499-1.361 0.833-2.006l-0.482-0.481c-1.167-1.165-1.134-3.033 0-4.167l1.42-1.42c1.135-1.136 3.003-1.165 4.167 0l0.481 0.481c0.645-0.333 1.316-0.612 2.006-0.833v-0.679c0-1.624 1.322-2.946 2.946-2.946h2.008c1.624 0 2.946 1.321 2.946 2.946v0.679c0.691 0.221 1.361 0.499 2.006 0.833l0.482-0.482c1.166-1.168 3.034-1.133 4.167 0l1.419 1.419c1.134 1.133 1.167 3.001-0 4.167l-0.481 0.481c0.334 0.645 0.612 1.315 0.833 2.006h0.679c1.624 0 2.946 1.322 2.946 2.946v2.008c0 1.624-1.322 2.946-2.946 2.946h-0.679c-0.221 0.691-0.499 1.361-0.833 2.006l0.482 0.482c1.167 1.165 1.134 3.033-0 4.167l-1.42 1.419c-1.135 1.137-3.003 1.165-4.166-0l-0.481-0.481c-0.645 0.334-1.316 0.612-2.006 0.833v0.679c0 1.624-1.322 2.946-2.946 2.946zM10.357 25.573c0.895 0.53 1.859 0.93 2.864 1.189 0.414 0.107 0.703 0.48 0.703 0.908v1.384c0 0.59 0.48 1.071 1.071 1.071h2.008c0.59 0 1.071-0.48 1.071-1.071v-1.384c0-0.428 0.289-0.801 0.703-0.908 1.005-0.259 1.969-0.66 2.864-1.189 0.368-0.218 0.837-0.159 1.14 0.144l0.98 0.981c0.423 0.423 1.102 0.413 1.514 0l1.42-1.42c0.411-0.411 0.425-1.090 0-1.514l-0.981-0.981c-0.303-0.303-0.362-0.772-0.144-1.14 0.53-0.895 0.93-1.859 1.189-2.864 0.107-0.414 0.48-0.703 0.908-0.703h1.384c0.59 0 1.071-0.48 1.071-1.071v-2.008c0-0.59-0.48-1.071-1.071-1.071h-1.384c-0.428 0-0.801-0.289-0.908-0.703-0.259-1.005-0.66-1.969-1.189-2.864-0.218-0.368-0.159-0.838 0.144-1.14l0.981-0.981c0.424-0.423 0.413-1.102 0-1.514l-1.42-1.42c-0.412-0.412-1.091-0.424-1.514-0l-0.981 0.981c-0.303 0.303-0.772 0.362-1.14 0.144-0.895-0.53-1.859-0.93-2.864-1.189-0.414-0.107-0.703-0.48-0.703-0.908v-1.384c0-0.59-0.48-1.071-1.071-1.071h-2.008c-0.59 0-1.071 0.48-1.071 1.071v1.384c0 0.428-0.289 0.801-0.703 0.908-1.005 0.259-1.969 0.66-2.864 1.189-0.368 0.218-0.838 0.159-1.14-0.144l-0.98-0.981c-0.423-0.423-1.102-0.413-1.514-0l-1.42 1.42c-0.411 0.411-0.425 1.090-0 1.514l0.981 0.981c0.303 0.303 0.362 0.772 0.144 1.14-0.53 0.895-0.93 1.859-1.189 2.864-0.107 0.414-0.48 0.703-0.908 0.703h-1.384c-0.59 0-1.071 0.48-1.071 1.071v2.008c0 0.59 0.48 1.071 1.071 1.071h1.384c0.428 0 0.801 0.289 0.908 0.703 0.259 1.005 0.659 1.969 1.189 2.864 0.218 0.368 0.159 0.837-0.144 1.14l-0.981 0.981c-0.424 0.423-0.413 1.102-0 1.514l1.42 1.42c0.412 0.412 1.091 0.424 1.514 0l0.981-0.981c0.223-0.223 0.687-0.412 1.14-0.144z"></path>
<path d="M16 22.962c-3.839 0-6.963-3.123-6.963-6.963s3.123-6.963 6.963-6.963 6.962 3.123 6.962 6.963-3.123 6.963-6.963 6.963zM16 10.912c-2.805 0-5.088 2.282-5.088 5.088s2.282 5.087 5.088 5.087 5.087-2.282 5.087-5.088-2.282-5.088-5.088-5.088z"></path>
</svg>
