<svg aria-hidden="true" style="position: absolute; width: 0; height: 0; overflow: hidden;" version="1.1" xmlns="http://www.w3.org/2000/svg" xmlns:xlink="http://www.w3.org/1999/xlink">
<defs>
<symbol id="icon-search" viewBox="0 0 32 32">
<path d="M31.715 28.953c0.381 0.381 0.381 0.999 0 1.381l-1.381 1.381c-0.382 0.381-1 0.381-1.381 0l-9.668-9.668c-0.105-0.105-0.175-0.229-0.222-0.361-1.983 1.449-4.418 2.314-7.063 2.314-6.627 0-12-5.373-12-12s5.373-12 12-12c6.627 0 12 5.373 12 12 0 2.645-0.865 5.080-2.314 7.063 0.132 0.047 0.256 0.116 0.361 0.222l9.668 9.668zM12 4c-4.418 0-8 3.582-8 8s3.582 8 8 8 8-3.582 8-8c0-4.418-3.582-8-8-8z"></path>
</symbol>
<symbol id="icon-search-small" viewBox="0 0 32 32">
<path d="M21.388 21.141c-0.045 0.035-0.089 0.073-0.132 0.116s-0.080 0.085-0.116 0.132c-1.677 1.617-3.959 2.611-6.473 2.611-2.577 0-4.909-1.043-6.6-2.733s-2.733-4.023-2.733-6.6 1.043-4.909 2.733-6.6 4.023-2.733 6.6-2.733 4.909 1.043 6.6 2.733 2.733 4.023 2.733 6.6c0 2.515-0.993 4.796-2.612 6.475zM28.943 27.057l-4.9-4.9c1.641-2.053 2.624-4.657 2.624-7.491 0-3.313-1.344-6.315-3.515-8.485s-5.172-3.515-8.485-3.515-6.315 1.344-8.485 3.515-3.515 5.172-3.515 8.485 1.344 6.315 3.515 8.485 5.172 3.515 8.485 3.515c2.833 0 5.437-0.983 7.491-2.624l4.9 4.9c0.521 0.521 1.365 0.521 1.885 0s0.521-1.365 0-1.885z"></path>
</symbol>
<symbol id="icon-home" viewBox="0 0 32 32">
<path d="M31.2 13.856c-0.001-0.001-0.002-0.002-0.002-0.002l-13.053-13.053c-0.556-0.557-1.296-0.863-2.083-0.863s-1.527 0.306-2.083 0.863l-13.047 13.046c-0.004 0.004-0.009 0.009-0.013 0.013-1.143 1.149-1.141 3.014 0.006 4.16 0.524 0.524 1.215 0.827 1.955 0.859 0.030 0.003 0.061 0.004 0.091 0.004h0.52v9.606c0 1.901 1.547 3.448 3.448 3.448h5.107c0.518 0 0.938-0.42 0.938-0.938v-7.531c0-0.867 0.706-1.573 1.573-1.573h3.012c0.867 0 1.573 0.706 1.573 1.573v7.531c0 0.518 0.42 0.938 0.938 0.938h5.107c1.901 0 3.448-1.547 3.448-3.448v-9.606h0.482c0.787 0 1.526-0.306 2.083-0.863 1.147-1.148 1.148-3.016 0.002-4.165zM29.872 16.695c-0.202 0.202-0.471 0.314-0.757 0.314h-1.42c-0.518 0-0.938 0.42-0.938 0.938v10.543c0 0.867-0.706 1.573-1.573 1.573h-4.169v-6.594c0-1.901-1.547-3.448-3.448-3.448h-3.012c-1.901 0-3.448 1.547-3.448 3.448v6.594h-4.169c-0.867 0-1.573-0.706-1.573-1.573v-10.543c0-0.518-0.42-0.938-0.938-0.938h-1.396c-0.015-0.001-0.029-0.002-0.044-0.002-0.279-0.005-0.541-0.116-0.738-0.312-0.417-0.417-0.417-1.097 0-1.515 0 0 0-0 0.001-0.001l13.054-13.053c0.202-0.202 0.471-0.314 0.757-0.314s0.555 0.111 0.757 0.314l13.050 13.050c0.002 0.002 0.004 0.004 0.006 0.006 0.415 0.418 0.415 1.096-0.002 1.513z"></path>
</symbol>
<symbol id="icon-calendar" viewBox="0 0 32 32">
<path d="M30.5 22.208v-17.802c0-1.051-0.855-1.906-1.906-1.906h-4.531v-0.625c0-1.034-0.841-1.875-1.875-1.875s-1.875 0.841-1.875 1.875v0.625h-10.125v-0.625c0-1.034-0.841-1.875-1.875-1.875s-1.875 0.841-1.875 1.875v0.625h-4.531c-1.051 0-1.906 0.855-1.906 1.906v23.188c0 1.051 0.855 1.906 1.906 1.906h8.519c0.345 0 0.625-0.28 0.625-0.625s-0.28-0.625-0.625-0.625h-8.519c-0.362 0-0.656-0.294-0.656-0.656v-23.188c0-0.362 0.294-0.656 0.656-0.656h4.531v0.625c0 1.034 0.841 1.875 1.875 1.875s1.875-0.841 1.875-1.875v-0.625h10.125v0.625c0 1.034 0.841 1.875 1.875 1.875s1.875-0.841 1.875-1.875v-0.625h4.531c0.362 0 0.656 0.294 0.656 0.656v3.094h-23.625c-0.345 0-0.625 0.28-0.625 0.625s0.28 0.625 0.625 0.625h23.625v12.402c-0.532-0.336-1.122-0.588-1.75-0.739v-9.288c0-0.345-0.28-0.625-0.625-0.625h-23.25c-0.345 0-0.625 0.28-0.625 0.625v14.75c0 0.345 0.28 0.625 0.625 0.625h16.637c0.039 0.613 0.172 1.202 0.386 1.75h-5.223c-0.345 0-0.625 0.28-0.625 0.625s0.28 0.625 0.625 0.625h5.894c1.064 1.511 2.822 2.5 4.806 2.5 3.239 0 5.875-2.636 5.875-5.875 0-1.503-0.568-2.876-1.5-3.917zM8.938 4.375c0 0.345-0.28 0.625-0.625 0.625s-0.625-0.28-0.625-0.625v-2.5c0-0.345 0.28-0.625 0.625-0.625s0.625 0.28 0.625 0.625v2.5zM22.813 4.375c0 0.345-0.28 0.625-0.625 0.625s-0.625-0.28-0.625-0.625v-2.5c0-0.345 0.28-0.625 0.625-0.625s0.625 0.28 0.625 0.625v2.5zM26.125 20.25c-0.291 0-0.576 0.022-0.856 0.063h-2.419v-3.625h3.4v3.564c-0.042-0.001-0.083-0.002-0.125-0.002zM20.315 25.25h-2.115v-3.688h3.4v0.82c-0.666 0.804-1.123 1.789-1.285 2.868zM4.25 16.688h3.4v3.625h-3.4v-3.625zM8.9 16.688h3.4v3.625h-3.4v-3.625zM18.2 16.688h3.4v3.625h-3.4v-3.625zM16.95 20.313h-3.4v-3.625h3.4v3.625zM18.2 15.438v-3.688h3.4v3.688h-3.4zM16.95 15.438h-3.4v-3.688h3.4v3.688zM12.3 15.438h-3.4v-3.688h3.4v3.688zM12.3 21.563v3.688h-3.4v-3.688h3.4zM13.55 21.563h3.4v3.688h-3.4v-3.688zM26.25 15.438h-3.4v-3.688h3.4v3.688zM7.65 11.75v3.688h-3.4v-3.688h3.4zM4.25 21.563h3.4v3.688h-3.4v-3.688zM26.125 30.75c-2.55 0-4.625-2.075-4.625-4.625s2.075-4.625 4.625-4.625 4.625 2.075 4.625 4.625-2.075 4.625-4.625 4.625z"></path>
<path d="M27.933 24.61l-1.933 1.933-0.86-0.86c-0.244-0.244-0.64-0.244-0.884 0s-0.244 0.64 0 0.884l1.302 1.302c0.117 0.117 0.276 0.183 0.442 0.183s0.325-0.066 0.442-0.183l2.375-2.375c0.244-0.244 0.244-0.64 0-0.884s-0.64-0.244-0.884 0z"></path>
<path d="M12.925 28.25c-0.164 0-0.326 0.067-0.442 0.183s-0.183 0.277-0.183 0.442 0.067 0.326 0.183 0.442c0.116 0.116 0.277 0.183 0.442 0.183s0.326-0.067 0.442-0.183c0.116-0.116 0.183-0.277 0.183-0.442s-0.067-0.326-0.183-0.442c-0.116-0.116-0.277-0.183-0.442-0.183z"></path>
<path d="M3.567 8.567c0.116-0.116 0.183-0.277 0.183-0.442s-0.067-0.326-0.183-0.442c-0.116-0.116-0.277-0.183-0.442-0.183s-0.326 0.067-0.442 0.183-0.183 0.277-0.183 0.442c0 0.164 0.067 0.326 0.183 0.442s0.277 0.183 0.442 0.183c0.164 0 0.326-0.067 0.442-0.183z"></path>
</symbol>
<symbol id="icon-clock" viewBox="0 0 32 32">
<path d="M16 0c-8.822 0-16 7.178-16 16s7.178 16 16 16 16-7.178 16-16-7.178-16-16-16zM16 30c-7.72 0-14-6.28-14-14s6.28-14 14-14 14 6.28 14 14-6.28 14-14 14z"></path>
<path d="M17 6h-2v10.414l6.293 6.293 1.414-1.414-5.707-5.707z"></path>
</symbol>
<symbol id="icon-message" viewBox="0 0 32 32">
<path d="M27.2 1.6h-22.4c-2.65 0.003-4.797 2.15-4.8 4.8v13.867c0.003 2.65 2.15 4.797 4.8 4.8h1.483l-0.939 4.693c-0.040 0.202 0.039 0.409 0.204 0.532s0.385 0.141 0.567 0.045l10.017-5.27h11.068c2.65-0.003 4.797-2.15 4.8-4.8v-13.867c-0.003-2.65-2.15-4.797-4.8-4.8zM30.933 20.267c-0.002 2.061-1.672 3.731-3.733 3.733h-11.2c-0.087 0-0.172 0.021-0.248 0.061l-9.142 4.812 0.846-4.233c0.032-0.157-0.008-0.32-0.109-0.444s-0.253-0.196-0.413-0.196h-2.133c-2.061-0.002-3.731-1.672-3.733-3.733v-13.867c0.002-2.061 1.672-3.731 3.733-3.733h22.4c2.061 0.002 3.731 1.672 3.733 3.733z"></path>
</symbol>
<symbol id="icon-menu-line" viewBox="0 0 32 32">
<path d="M30.667 1.333h-29.333c-0.736 0-1.333 0.597-1.333 1.333s0.597 1.333 1.333 1.333h29.333c0.736 0 1.333-0.597 1.333-1.333s-0.597-1.333-1.333-1.333z"></path>
<path d="M30.667 14.667h-29.333c-0.736 0-1.333 0.597-1.333 1.333s0.597 1.333 1.333 1.333h29.333c0.736 0 1.333-0.597 1.333-1.333s-0.597-1.333-1.333-1.333z"></path>
<path d="M30.667 28h-29.333c-0.736 0-1.333 0.597-1.333 1.333s0.597 1.333 1.333 1.333h29.333c0.736 0 1.333-0.597 1.333-1.333s-0.597-1.333-1.333-1.333z"></path>
</symbol>
<symbol id="icon-menu-cards" viewBox="0 0 32 32">
<path d="M11.050 0h-7.349c-2.040 0-3.7 1.66-3.7 3.7v7.349c0 2.040 1.66 3.7 3.7 3.7h7.349c2.040 0 3.7-1.66 3.7-3.7v-7.349c0-2.040-1.66-3.7-3.7-3.7zM12.25 11.050c0 0.662-0.539 1.2-1.2 1.2h-7.349c-0.662 0-1.2-0.539-1.2-1.2v-7.349c0-0.662 0.539-1.2 1.2-1.2h7.349c0.662 0 1.2 0.539 1.2 1.2v7.349z"></path>
<path d="M28.25 0h-7.25c-2.068 0-3.75 1.682-3.75 3.75v7.25c0 2.068 1.682 3.75 3.75 3.75h7.25c2.068 0 3.75-1.682 3.75-3.75v-7.25c0-2.068-1.682-3.75-3.75-3.75zM29.5 11c0 0.689-0.561 1.25-1.25 1.25h-7.25c-0.689 0-1.25-0.561-1.25-1.25v-7.25c0-0.689 0.561-1.25 1.25-1.25h7.25c0.689 0 1.25 0.561 1.25 1.25v7.25z"></path>
<path d="M11.050 17.25h-7.349c-2.040 0-3.7 1.66-3.7 3.7v7.349c0 2.040 1.66 3.701 3.7 3.701h7.349c2.040 0 3.7-1.66 3.7-3.7v-7.349c0-2.040-1.66-3.701-3.7-3.701zM12.25 28.299c0 0.662-0.539 1.201-1.2 1.201h-7.349c-0.662 0-1.2-0.539-1.2-1.2v-7.349c0-0.662 0.539-1.201 1.2-1.201h7.349c0.662 0 1.2 0.539 1.2 1.2v7.349z"></path>
<path d="M28.25 17.25h-7.25c-2.068 0-3.75 1.682-3.75 3.75v7.25c0 2.068 1.682 3.75 3.75 3.75h7.25c2.068 0 3.75-1.682 3.75-3.75v-7.25c0-2.068-1.682-3.75-3.75-3.75zM29.5 28.25c0 0.689-0.561 1.25-1.25 1.25h-7.25c-0.689 0-1.25-0.561-1.25-1.25v-7.25c0-0.689 0.561-1.25 1.25-1.25h7.25c0.689 0 1.25 0.561 1.25 1.25v7.25z"></path>
</symbol>
<symbol id="icon-two-dots" viewBox="0 0 32 32">
<path d="M16.046 10.636c3.222 0 5.271-2.636 5.271-5.365 0-2.635-2.050-5.27-5.271-5.27-3.411 0-5.363 2.636-5.363 5.27 0 2.73 1.951 5.365 5.363 5.365z"></path>
<path d="M16.046 32c3.222 0 5.271-2.636 5.271-5.366 0-2.636-2.050-5.269-5.271-5.269-3.411 0-5.363 2.634-5.363 5.269 0 2.731 1.951 5.366 5.363 5.366z"></path>
</symbol>
<symbol id="icon-notification" viewBox="0 0 32 32">
<path d="M29.239 26.991l-2.291-3.816c-1.056-1.761-1.615-3.777-1.615-5.832v-3.343c0-5.145-4.188-9.333-9.333-9.333s-9.333 4.188-9.333 9.333v3.343c0 2.055-0.559 4.071-1.615 5.832l-2.291 3.816c-0.124 0.205-0.127 0.463-0.009 0.671 0.119 0.209 0.341 0.339 0.581 0.339h25.333c0.24 0 0.463-0.129 0.581-0.339 0.117-0.208 0.115-0.465-0.009-0.671zM4.511 26.667l1.684-2.807c1.181-1.968 1.805-4.221 1.805-6.517v-3.343c0-4.412 3.588-8 8-8s8 3.588 8 8v3.343c0 2.296 0.624 4.549 1.804 6.517l1.685 2.807h-22.979z"></path>
<path d="M16 0c-1.471 0-2.667 1.196-2.667 2.667v2.667c0 0.368 0.299 0.667 0.667 0.667s0.667-0.299 0.667-0.667v-2.667c0-0.736 0.597-1.333 1.333-1.333s1.333 0.597 1.333 1.333v2.667c0 0.368 0.299 0.667 0.667 0.667s0.667-0.299 0.667-0.667v-2.667c0-1.471-1.196-2.667-2.667-2.667z"></path>
<path d="M18.885 26.996c-0.188-0.317-0.595-0.421-0.913-0.239-0.319 0.187-0.425 0.596-0.239 0.913 0.173 0.295 0.268 0.648 0.268 0.996 0 1.103-0.897 2-2 2s-2-0.897-2-2c0-0.348 0.095-0.701 0.268-0.996 0.185-0.319 0.079-0.727-0.239-0.913-0.321-0.183-0.727-0.079-0.913 0.239-0.295 0.504-0.451 1.081-0.451 1.671 0 1.839 1.495 3.333 3.333 3.333s3.333-1.495 3.336-3.333c0-0.589-0.156-1.167-0.451-1.671z"></path>
</symbol>
<symbol id="icon-add" viewBox="0 0 32 32">
<path d="M16 0c-8.823 0-16 7.177-16 16s7.177 16 16 16 16-7.177 16-16-7.177-16-16-16zM23 17.333h-5.667v5.667c0 0.736-0.597 1.333-1.333 1.333s-1.333-0.597-1.333-1.333v-5.667h-5.667c-0.736 0-1.333-0.597-1.333-1.333s0.597-1.333 1.333-1.333h5.667v-5.667c0-0.736 0.597-1.333 1.333-1.333s1.333 0.597 1.333 1.333v5.667h5.667c0.736 0 1.333 0.597 1.333 1.333s-0.597 1.333-1.333 1.333z"></path>
</symbol>
<symbol id="icon-settings" viewBox="0 0 32 32">
<path d="M17.004 32h-2.008c-1.624 0-2.946-1.322-2.946-2.946v-0.679c-0.691-0.221-1.361-0.499-2.006-0.833l-0.482 0.482c-1.166 1.168-3.034 1.133-4.167-0l-1.419-1.419c-1.134-1.133-1.167-3 0-4.167l0.481-0.481c-0.334-0.645-0.612-1.315-0.833-2.006h-0.679c-1.624 0-2.946-1.322-2.946-2.946v-2.008c0-1.624 1.322-2.946 2.946-2.946h0.679c0.221-0.691 0.499-1.361 0.833-2.006l-0.482-0.481c-1.167-1.165-1.134-3.033 0-4.167l1.42-1.42c1.135-1.136 3.003-1.165 4.167 0l0.481 0.481c0.645-0.333 1.316-0.612 2.006-0.833v-0.679c0-1.624 1.322-2.946 2.946-2.946h2.008c1.624 0 2.946 1.321 2.946 2.946v0.679c0.691 0.221 1.361 0.499 2.006 0.833l0.482-0.482c1.166-1.168 3.034-1.133 4.167 0l1.419 1.419c1.134 1.133 1.167 3.001-0 4.167l-0.481 0.481c0.334 0.645 0.612 1.315 0.833 2.006h0.679c1.624 0 2.946 1.322 2.946 2.946v2.008c0 1.624-1.322 2.946-2.946 2.946h-0.679c-0.221 0.691-0.499 1.361-0.833 2.006l0.482 0.482c1.167 1.165 1.134 3.033-0 4.167l-1.42 1.419c-1.135 1.137-3.003 1.165-4.166-0l-0.481-0.481c-0.645 0.334-1.316 0.612-2.006 0.833v0.679c0 1.624-1.322 2.946-2.946 2.946zM10.357 25.573c0.895 0.53 1.859 0.93 2.864 1.189 0.414 0.107 0.703 0.48 0.703 0.908v1.384c0 0.59 0.48 1.071 1.071 1.071h2.008c0.59 0 1.071-0.48 1.071-1.071v-1.384c0-0.428 0.289-0.801 0.703-0.908 1.005-0.259 1.969-0.66 2.864-1.189 0.368-0.218 0.837-0.159 1.14 0.144l0.98 0.981c0.423 0.423 1.102 0.413 1.514 0l1.42-1.42c0.411-0.411 0.425-1.090 0-1.514l-0.981-0.981c-0.303-0.303-0.362-0.772-0.144-1.14 0.53-0.895 0.93-1.859 1.189-2.864 0.107-0.414 0.48-0.703 0.908-0.703h1.384c0.59 0 1.071-0.48 1.071-1.071v-2.008c0-0.59-0.48-1.071-1.071-1.071h-1.384c-0.428 0-0.801-0.289-0.908-0.703-0.259-1.005-0.66-1.969-1.189-2.864-0.218-0.368-0.159-0.838 0.144-1.14l0.981-0.981c0.424-0.423 0.413-1.102 0-1.514l-1.42-1.42c-0.412-0.412-1.091-0.424-1.514-0l-0.981 0.981c-0.303 0.303-0.772 0.362-1.14 0.144-0.895-0.53-1.859-0.93-2.864-1.189-0.414-0.107-0.703-0.48-0.703-0.908v-1.384c0-0.59-0.48-1.071-1.071-1.071h-2.008c-0.59 0-1.071 0.48-1.071 1.071v1.384c0 0.428-0.289 0.801-0.703 0.908-1.005 0.259-1.969 0.66-2.864 1.189-0.368 0.218-0.838 0.159-1.14-0.144l-0.98-0.981c-0.423-0.423-1.102-0.413-1.514-0l-1.42 1.42c-0.411 0.411-0.425 1.090-0 1.514l0.981 0.981c0.303 0.303 0.362 0.772 0.144 1.14-0.53 0.895-0.93 1.859-1.189 2.864-0.107 0.414-0.48 0.703-0.908 0.703h-1.384c-0.59 0-1.071 0.48-1.071 1.071v2.008c0 0.59 0.48 1.071 1.071 1.071h1.384c0.428 0 0.801 0.289 0.908 0.703 0.259 1.005 0.659 1.969 1.189 2.864 0.218 0.368 0.159 0.837-0.144 1.14l-0.981 0.981c-0.424 0.423-0.413 1.102-0 1.514l1.42 1.42c0.412 0.412 1.091 0.424 1.514 0l0.981-0.981c0.223-0.223 0.687-0.412 1.14-0.144z"></path>
<path d="M16 22.962c-3.839 0-6.963-3.123-6.963-6.963s3.123-6.963 6.963-6.963 6.962 3.123 6.962 6.963-3.123 6.963-6.963 6.963zM16 10.912c-2.805 0-5.088 2.282-5.088 5.088s2.282 5.087 5.088 5.087 5.087-2.282 5.087-5.088-2.282-5.088-5.088-5.088z"></path>
</symbol>
<symbol id="icon-star-f" viewBox="0 0 32 32">
<path d="M31.916 12.274c-0.211-0.648-0.785-1.107-1.463-1.168l-9.237-0.839-3.651-8.547c-0.27-0.628-0.883-1.033-1.565-1.033s-1.296 0.405-1.564 1.033l-3.651 8.547-9.239 0.839c-0.677 0.063-1.251 0.521-1.463 1.168-0.211 0.648-0.016 1.359 0.496 1.808l6.983 6.123-2.059 9.068c-0.151 0.667 0.108 1.356 0.661 1.756 0.297 0.216 0.647 0.324 0.997 0.324 0.301 0 0.603-0.080 0.872-0.241l7.965-4.763 7.964 4.763c0.584 0.349 1.319 0.317 1.871-0.083 0.553-0.4 0.812-1.089 0.661-1.756l-2.059-9.068 6.983-6.123c0.512-0.449 0.707-1.158 0.496-1.808z"></path>
</symbol>
<symbol id="icon-star-o" viewBox="0 0 32 32">
<path d="M7.162 31.353c-0.351 0-0.699-0.109-0.996-0.324-0.553-0.401-0.812-1.091-0.661-1.756l2.059-9.068-6.982-6.123c-0.513-0.448-0.709-1.158-0.499-1.807 0.211-0.648 0.784-1.107 1.463-1.169l9.238-0.839 3.652-8.547c0.269-0.628 0.883-1.033 1.564-1.033s1.295 0.406 1.564 1.032l3.652 8.548 9.236 0.839c0.68 0.061 1.253 0.521 1.464 1.169s0.016 1.359-0.497 1.807l-6.982 6.121 2.059 9.068c0.151 0.667-0.108 1.356-0.661 1.756-0.552 0.4-1.288 0.431-1.869 0.081l-7.966-4.76-7.966 4.763c-0.269 0.16-0.569 0.241-0.872 0.241zM16 24.298c0.303 0 0.603 0.081 0.872 0.241l7.518 4.496-1.943-8.559c-0.139-0.609 0.068-1.245 0.539-1.657l6.592-5.781-8.722-0.792c-0.628-0.057-1.168-0.452-1.413-1.031l-3.443-8.066-3.447 8.067c-0.243 0.575-0.783 0.97-1.409 1.027l-8.723 0.792 6.592 5.781c0.472 0.413 0.679 1.048 0.539 1.659l-1.941 8.559 7.518-4.495c0.269-0.16 0.569-0.241 0.872-0.241zM10.713 10.432s0 0.001-0.001 0.003zM21.284 10.428l0.001 0.003c0-0.001 0-0.001-0.001-0.003z"></path>
</symbol>
<symbol id="icon-user" viewBox="0 0 32 32">
<path d="M27.314 4.686c-3.022-3.022-7.040-4.686-11.314-4.686s-8.292 1.664-11.314 4.686-4.686 7.040-4.686 11.314c0 4.274 1.664 8.292 4.686 11.314s7.040 4.686 11.314 4.686c4.274 0 8.292-1.664 11.314-4.686s4.686-7.040 4.686-11.314c0-4.274-1.664-8.292-4.686-11.314zM8.021 27.649c0.669-3.853 4.008-6.695 7.979-6.695s7.31 2.842 7.979 6.695c-2.272 1.561-5.020 2.476-7.979 2.476s-5.707-0.915-7.979-2.476zM10.913 13.992c0-2.805 2.282-5.087 5.087-5.087s5.087 2.282 5.087 5.087c0 2.805-2.282 5.087-5.087 5.087s-5.087-2.282-5.087-5.087zM25.603 26.349c-0.505-1.794-1.507-3.421-2.912-4.692-0.862-0.78-1.843-1.395-2.897-1.829 1.906-1.243 3.169-3.395 3.169-5.835 0-3.839-3.124-6.962-6.963-6.962s-6.962 3.123-6.962 6.962c0 2.441 1.263 4.592 3.169 5.835-1.054 0.434-2.036 1.049-2.897 1.829-1.405 1.271-2.407 2.899-2.912 4.692-2.78-2.581-4.522-6.265-4.522-10.348 0-7.789 6.336-14.125 14.125-14.125s14.125 6.336 14.125 14.125c0 4.084-1.743 7.767-4.522 10.349z"></path>
</symbol>
</defs>
</svg>
